<svg width="38" height="38" viewBox="0 0 38 38" fill="none" xmlns="http://www.w3.org/2000/svg">
<g clip-path="url(#clip0_223_8)">
<path d="M19 3.1665C10.26 3.1665 3.16669 10.2598 3.16669 18.9998C3.16669 27.7398 10.26 34.8332 19 34.8332H26.9167V31.6665H19C12.1284 31.6665 6.33335 25.8715 6.33335 18.9998C6.33335 12.1282 12.1284 6.33317 19 6.33317C25.8717 6.33317 31.6667 12.1282 31.6667 18.9998V21.264C31.6667 22.5148 30.5425 23.7498 29.2917 23.7498C28.0409 23.7498 26.9167 22.5148 26.9167 21.264V18.9998C26.9167 14.6298 23.37 11.0832 19 11.0832C14.63 11.0832 11.0834 14.6298 11.0834 18.9998C11.0834 23.3698 14.63 26.9165 19 26.9165C21.185 26.9165 23.18 26.0298 24.605 24.589C25.6342 25.9982 27.4075 26.9165 29.2917 26.9165C32.4109 26.9165 34.8334 24.3832 34.8334 21.264V18.9998C34.8334 10.2598 27.74 3.1665 19 3.1665ZM19 23.7498C16.3717 23.7498 14.25 21.6282 14.25 18.9998C14.25 16.3715 16.3717 14.2498 19 14.2498C21.6284 14.2498 23.75 16.3715 23.75 18.9998C23.75 21.6282 21.6284 23.7498 19 23.7498Z" fill="white"/>
</g>
<defs>
<clipPath id="clip0_223_8">
<rect width="38" height="38" fill="white"/>
</clipPath>
</defs>
</svg>
