<svg width="37" height="37" viewBox="0 0 37 37" fill="none" xmlns="http://www.w3.org/2000/svg">
<g clip-path="url(#clip0_223_5)">
<path d="M30.8487 23.7108C28.9525 23.7108 27.1179 23.4025 25.4067 22.8475C24.8671 22.6625 24.2658 22.8013 23.8496 23.2175L21.4292 26.2546C17.0662 24.1733 12.9808 20.2421 10.8071 15.725L13.8133 13.1658C14.2296 12.7342 14.3529 12.1329 14.1833 11.5933C13.6129 9.88208 13.32 8.0475 13.32 6.15125C13.32 5.31875 12.6263 4.625 11.7937 4.625H6.45958C5.62708 4.625 4.625 4.995 4.625 6.15125C4.625 20.4733 16.5421 32.375 30.8487 32.375C31.9433 32.375 32.375 31.4037 32.375 30.5558V25.2371C32.375 24.4046 31.6812 23.7108 30.8487 23.7108Z" fill="white"/>
</g>
<defs>
<clipPath id="clip0_223_5">
<rect width="37" height="37" fill="white"/>
</clipPath>
</defs>
</svg>
