<svg width="21" height="21" viewBox="0 0 21 21" fill="none" xmlns="http://www.w3.org/2000/svg">
<path d="M4.4475 9.43728C6.0675 12.6389 8.6775 15.2523 11.8612 16.8927L14.3363 14.4038C14.64 14.0983 15.09 13.9965 15.4838 14.1323C16.7437 14.5508 18.105 14.7771 19.5 14.7771C20.1187 14.7771 20.625 15.2862 20.625 15.9084V19.8567C20.625 20.479 20.1187 20.9881 19.5 20.9881C8.93625 20.9881 0.375 12.3787 0.375 1.75562C0.375 1.13339 0.88125 0.624298 1.5 0.624298H5.4375C6.05625 0.624298 6.5625 1.13339 6.5625 1.75562C6.5625 3.16977 6.7875 4.52735 7.20375 5.79443C7.3275 6.19039 7.2375 6.63161 6.9225 6.94838L4.4475 9.43728Z" fill="#2D81AF"/>
</svg>
